<svg xmlns="http://www.w3.org/2000/svg" viewBox="0 0 64 64" role="img" aria-label="Sion Làng Đại Học">
  <rect width="64" height="64" rx="18" fill="#233f98"/>
  <circle cx="32" cy="32" r="22" fill="#ffffff" opacity="0.12"/>
  <path fill="#ffffff" d="M32.4 49.5c-8.5 0-14.4-4.1-15.1-10.7h8.1c.6 2.6 3.1 4.2 7 4.2 3.7 0 5.8-1.4 5.8-3.7 0-2.6-2.7-3.2-7.9-4.3-6.2-1.3-12-3.3-12-10.1 0-6.4 5.3-10.4 13.2-10.4 8.1 0 13.3 3.9 14 10.3h-7.9c-.5-2.4-2.6-3.8-6.1-3.8-3.3 0-5.2 1.3-5.2 3.4 0 2.4 2.7 3 7.7 4.1 6.4 1.4 12.3 3.5 12.3 10.4 0 6.6-5.4 10.6-13.9 10.6Z"/>
</svg>
